PathFileType	4	(X/Y/Z)	Formatted/subject02/trials/walk2/markers.trc
DataRate	CameraRate	NumFrames	NumMarkers	Units	OrigDataRate	OrigDataStartFrame	OrigNumFrames
200.00000000000426	200.00000000000426	4	64	m	200.00000000000426	58	235
Frame#	Time	CLAV			C7			RACR			RASH			RPSH			RLEL			RMEL			RUA1			RUA2			RUA3			RFAsuperior			RFAradius			RFAulna			RASI			RPSI			RCAL			RTOE			RMT5			RTH1			RTH2			RTH3			RTB1			RTB2			RTB3			RLFC			RMFC			RLMAL			RMMAL			RHJC			RKJC			REJC			RAJC			RSJC			LACR			LASH			LPSH			LLEL			LMEL			LUA1			LUA2			LUA3			LFAsuperior			LFAradius			LFAulna			LASI			LPSI			LCAL			LTOE			LMT5			LTH1			LTH2			LTH3			LTB1			LTB2			LTB3			LLFC			LMFC			LLMAL			LMMAL			LHJC			LKJC			LEJC			LAJC			LSJC			
		X1	Y1	Z1	X2	Y2	Z2	X3	Y3	Z3	X4	Y4	Z4	X5	Y5	Z5	X6	Y6	Z6	X7	Y7	Z7	X8	Y8	Z8	X9	Y9	Z9	X10	Y10	Z10	X11	Y11	Z11	X12	Y12	Z12	X13	Y13	Z13	X14	Y14	Z14	X15	Y15	Z15	X16	Y16	Z16	X17	Y17	Z17	X18	Y18	Z18	X19	Y19	Z19	X20	Y20	Z20	X21	Y21	Z21	X22	Y22	Z22	X23	Y23	Z23	X24	Y24	Z24	X25	Y25	Z25	X26	Y26	Z26	X27	Y27	Z27	X28	Y28	Z28	X29	Y29	Z29	X30	Y30	Z30	X31	Y31	Z31	X32	Y32	Z32	X33	Y33	Z33	X34	Y34	Z34	X35	Y35	Z35	X36	Y36	Z36	X37	Y37	Z37	X38	Y38	Z38	X39	Y39	Z39	X40	Y40	Z40	X41	Y41	Z41	X42	Y42	Z42	X43	Y43	Z43	X44	Y44	Z44	X45	Y45	Z45	X46	Y46	Z46	X47	Y47	Z47	X48	Y48	Z48	X49	Y49	Z49	X50	Y50	Z50	X51	Y51	Z51	X52	Y52	Z52	X53	Y53	Z53	X54	Y54	Z54	X55	Y55	Z55	X56	Y56	Z56	X57	Y57	Z57	X58	Y58	Z58	X59	Y59	Z59	X60	Y60	Z60	X61	Y61	Z61	X62	Y62	Z62	X63	Y63	Z63	X64	Y64	Z64	

59	3.37	1.324277338422945	1.480351010183745	-0.4353231258976297	1.197284157788157	1.566323595623016	-0.4709788467230808	1.258738500008449	1.529474456876428	-0.2971421260412801	1.311412050258444	1.479612389946448	-0.2671698820215983	1.212190892572165	1.499547153087854	-0.2710715717453744	1.130103690506743	1.183704740104107	-0.1839807255224802	1.117868370610937	1.178985816188029	-0.2571286749661421	1.237558703341903	1.418225187278434	-0.2246795753810376	1.23348281433541	1.32501591990208	-0.2357916349890913	1.162315800418138	1.316273192575575	-0.2102462226911725	1.202274837351583	1.101233000243009	-0.2154156167582992	1.287887402433818	0.9500312202898153	-0.1630538144921227	1.222360922234299	0.9363494761080045	-0.1301556366418956	1.315652852830382	1.069362897626639	-0.3320547929055516	1.133865993930576	1.082499917597143	-0.4242383686829381	1.158963282800098	0.06331693644254363	-0.420713629409412	1.38922254828835	0.03827453437045218	-0.4542422812725203	1.327763958167891	0.00645938741798177	-0.360141771907073	1.259192519515263	0.8865130232502362	-0.2739482859121131	1.31961158681888	0.7846610168467021	-0.2888934055937045	1.256174544707216	0.6674758458767609	-0.3211285834207228	1.325834449373939	0.3694476135449224	-0.409824233622469	1.300843901076422	0.3040784692640869	-0.3422639535480596	1.296657601641754	0.2068964683248891	-0.4143442050111468	1.311252061416433	0.5370770102857223	-0.3347906192398206	1.31180620374195	0.5426594682633328	-0.4507251715408981	1.24114720747242	0.06864180045102192	-0.362481709207186	1.246864954128261	0.07404291196753088	-0.4669180377727429	1.246392677231037	0.9559048568470463	-0.3730363195312011	1.315129623577281	0.5385048704837294	-0.3950885561432046	1.127833116062021	1.172123744847269	-0.2187798525122028	1.228897436324118	0.06037652358811241	-0.4230192998145308	1.264931898940307	1.48895082974004	-0.2689976285727013	1.271717939187993	1.522364192776961	-0.6440081274976166	1.326095669821057	1.474604107591947	-0.6661674355746016	1.218936819519876	1.496133651784666	-0.6703812604762798	1.224706849625897	1.148793405720179	-0.7202969404854915	1.189580101407287	1.145226992275638	-0.6523668615091754	1.266084250717876	1.418453585101438	-0.7089555404233111	1.285127546487978	1.348578475224553	-0.6924367548915631	1.196467049790824	1.312132843421341	-0.6958213462835602	1.27640378785677	1.078114507399346	-0.6536779406741046	1.373431789493031	0.9104786402024851	-0.6828371546445103	1.316076284853795	0.8885762217960257	-0.7226754256296064	1.321425445247897	1.049671546941293	-0.5936230901568237	1.135492315134818	1.081572736602513	-0.5067506363990609	0.9441948066762529	0.2993175119424128	-0.5900322200712526	1.06705138138048	0.1024992693508264	-0.5595823179425844	1.007762512308132	0.136739940039733	-0.6517755667555527	1.288420624504523	0.8542775422308214	-0.6456650786345939	1.372247330230255	0.7491241037508588	-0.6449980993052886	1.33127716515105	0.6230066676912254	-0.6445695178900512	1.282583082244678	0.4028336503094208	-0.5944153088585631	1.200145181513565	0.3710664897962642	-0.651769552958539	1.115767692603169	0.2911867466829888	-0.5895028940726659	1.361859726958934	0.5519950633373704	-0.6550204560949309	1.371437655869292	0.5363143232304627	-0.5404138725339166	0.9994164744405537	0.2449476932246876	-0.6469572994545794	1.008032498215112	0.2375696917900804	-0.5428413036334075	1.24856657907071	0.9436676118695293	-0.5331864882091912	1.373664422702818	0.5359226052044999	-0.5961637687620905	1.215399070583668	1.141605925622078	-0.687467938403034	0.9852522599115783	0.2429009591764003	-0.5863078355009586	1.279615518502919	1.483942547385539	-0.6679951821257044	
60	3.375	1.33026205441646	1.481036294773313	-0.4356482867680849	1.203241591846027	1.567130231502802	-0.4709118649933201	1.265282698398651	1.530346682564525	-0.2972697840142904	1.318005931629921	1.480446351238869	-0.2674489584510249	1.218794791765933	1.500494995508765	-0.2710067227261557	1.136644114060843	1.185009552825235	-0.182704377266159	1.124023287281503	1.180143806063727	-0.2557771700385017	1.244270960196298	1.419259069338024	-0.2244948344366643	1.239985210049129	1.32603151828842	-0.2353720737800118	1.168936933874386	1.317464428644586	-0.2094395716232697	1.20917104075647	1.103030830120634	-0.214415212180084	1.296243610544458	0.9525923972319696	-0.1622626149479731	1.231037086146867	0.9385045905777953	-0.1289033176424154	1.320768514193092	1.069975744076985	-0.3314001496385837	1.139210461850873	1.083239575965529	-0.4240154798965979	1.159222171383784	0.06377429683227059	-0.4208762468789478	1.389508432256914	0.0382810961842517	-0.4538755879978105	1.327772868004065	0.006594116000777175	-0.359913238456769	1.263737407276799	0.8870235569288443	-0.2736713893929951	1.323225218799104	0.7846275584082579	-0.2886350544460606	1.258729518558441	0.6680449800990211	-0.3209543425246683	1.326807216210673	0.3695353734408394	-0.409632545407575	1.30151206177571	0.3042307472940171	-0.3421232502113798	1.297249122872172	0.207054644646635	-0.4142069618711924	1.312613105415945	0.5371518524109742	-0.334650640728403	1.313273747260985	0.5427820633013518	-0.4505823258094129	1.24129309556315	0.06893719234750306	-0.3624578758990424	1.247251658463195	0.07431806534467839	-0.4668817864303071	1.251622885955207	0.9565754295998273	-0.3727333716063247	1.316477219344637	0.5386188171417579	-0.3949298299859419	1.134174812834862	1.173352895049971	-0.2174646862357371	1.229155567766906	0.06069767788464298	-0.423021581133783	1.271530473160636	1.489838138647102	-0.2691155931257099	1.276995495736045	1.522945725804364	-0.6441747866891644	1.331236273208024	1.47510397464382	-0.6664930116468182	1.224088242154917	1.496756510455308	-0.6703353970639594	1.228809701718125	1.149454696878095	-0.7200474156246264	1.194003542298803	1.14600040453202	-0.6519467364366465	1.270877239250818	1.419021315908151	-0.7090252011887465	1.28983536553668	1.349108562158617	-0.6925678417278675	1.201073841831638	1.312870839153484	-0.6955076634868856	1.280400268776415	1.078423850559598	-0.6536692818423485	1.376281441451481	0.9102160482168838	-0.6833241767035746	1.318618053008	0.888677533035005	-0.7229156363449056	1.327194859923784	1.050698479547119	-0.5929840470687524	1.141042441680492	1.082442992462871	-0.5065248018762413	0.9588536284189705	0.2953259240736278	-0.5898680293796268	1.086243917895817	0.1013524800270264	-0.5597952467307508	1.026172649759236	0.1343851744257166	-0.6519227263284246	1.295373547117411	0.8557981737724554	-0.6453716243810217	1.380704763953128	0.7518620304463448	-0.6446870644906363	1.341553856428296	0.6251679384943425	-0.6442879512959721	1.296104078825939	0.4042581855440258	-0.5941956523553094	1.214178408990526	0.3712667481317583	-0.6515926815449168	1.130984655063506	0.2901139029545348	-0.5893794528017591	1.373159008986484	0.5546051353295111	-0.6547363143399458	1.382920887857832	0.5390498049940535	-0.5401281612831239	1.015367216194569	0.2421421591215845	-0.6468945321588015	1.024047664753946	0.2348727380835173	-0.5427762499636635	1.254197084434557	0.9445915756351669	-0.5328967671990118	1.385174142376881	0.5387023550562038	-0.5958769226970384	1.21964386010963	1.14230331940347	-0.6871706282752981	1.001208844462027	0.2398698962841275	-0.586251734541694	1.284760814738738	1.484495762052053	-0.6681596463215032	
61	3.38	1.336233737710318	1.481685233533197	-0.4359765756189761	1.209192025730302	1.567905067434126	-0.4708538957814869	1.271806172613386	1.531178610842264	-0.2974055269283719	1.32457523862565	1.481237548559007	-0.2677343288356566	1.225376194301371	1.50140275904127	-0.2709545754357948	1.143183448150505	1.186272250849429	-0.1814290053916601	1.130180887837125	1.181256067578429	-0.2544246568674819	1.250963684754407	1.420252520866059	-0.2243180499906204	1.246475442919958	1.32700676510852	-0.2349549190414087	1.175547508813483	1.318612972117868	-0.2086391510857676	1.216071795727805	1.104798677011717	-0.21341658509913	1.30461365161134	0.9551436920779931	-0.1614841950258608	1.239733147893854	0.9406440147700927	-0.127668822302914	1.325861224097274	1.070559272147819	-0.3307639567193825	1.144538072421825	1.083944864691415	-0.4238209047899468	1.159477975187918	0.0642301499981224	-0.4210369161220492	1.389788208232838	0.03828757357752159	-0.4535146165323778	1.327780197903253	0.006732305006611584	-0.3596874380688733	1.268270598859272	0.8875116126913752	-0.2734188932762702	1.326818194327564	0.7845781249429211	-0.2884031406508196	1.261263938117258	0.6686090526136772	-0.3207997925222576	1.327755974234275	0.3696275104228072	-0.4094554942236671	1.302162395405388	0.3043893567203309	-0.3419944239966575	1.29782713038366	0.2072160133577201	-0.4140775418357767	1.313944349748905	0.5372307573786158	-0.334531440803672	1.314704613349324	0.5429049785665638	-0.4504603696403007	1.241436174277911	0.0692354392570243	-0.3624355360547663	1.247632402655077	0.07459147491853185	-0.4668468907657256	1.256838499974713	0.9572152076751832	-0.3724553355606784	1.317790571423206	0.5387362234111845	-0.3947918129665177	1.140517792918196	1.1745384591719	-0.216148835658319	1.229409944606864	0.06101808930105307	-0.4230244503126496	1.278105446311941	1.490683941409423	-0.2692428533554913	1.282276150395919	1.523500569198976	-0.6443442418407384	1.336379773249224	1.4755767306357	-0.6668187151747411	1.229244805379002	1.497355157956544	-0.6702965815028904	1.232839365457692	1.150110834679215	-0.7198256538401137	1.198373872336777	1.146765239215014	-0.6515465197659205	1.275650258978611	1.419572413274376	-0.7091011922044541	1.294514068490458	1.3496163032881	-0.6927198694304204	1.205646506373323	1.313604379114443	-0.6951939211032921	1.284347851497772	1.078734850404142	-0.6537061526838776	1.379098949619779	0.9099812664264272	-0.683887838042582	1.321124935266151	0.8888010239615114	-0.7232180893563939	1.332957941404508	1.051702660919292	-0.59236118732093	1.146580700905228	1.083280928844045	-0.5063264547061959	0.9736642772219199	0.2910187956566833	-0.5896221060845021	1.105629802278567	0.1000702158549976	-0.5599220190007246	1.044772409033382	0.1318342271553674	-0.6519796853045416	1.302245904687141	0.8572735053601972	-0.6450973325334388	1.389026350447032	0.754544360347714	-0.644401576015438	1.351656095982709	0.6273136855274972	-0.6439950628342969	1.309567448389201	0.4056418518549878	-0.59394337270581	1.228193631963419	0.3713608653190149	-0.6513697189479729	1.146285064402054	0.2888820440067706	-0.5891949539828788	1.384248214247108	0.5572003238885918	-0.6544369733747659	1.394222171714308	0.5417915976533048	-0.539827276331765	1.03146230785381	0.2390862185607689	-0.6467516658177945	1.04022808874148	0.2319364842517389	-0.5426322452401389	1.259823187502285	0.9454887119240251	-0.5326306566285564	1.396486009362903	0.5414874988981999	-0.59557479675309	1.223823874125355	1.142992458412406	-0.68690016775486	1.017324837901555	0.2365774809261443	-0.5861133136784222	1.289909980935515	1.485023123486116	-0.6683272396945759	
62	3.385	1.342193008077064	1.48229456649672	-0.4363064364412504	1.215136537886553	1.568644952589929	-0.4708049582460574	1.278307683073613	1.531966766484096	-0.2975484497355897	1.331118324019727	1.48198243508184	-0.2680244452108973	1.231933444332459	1.502266940591673	-0.2709148732853677	1.149725603804899	1.187486726871052	-0.1801544055871853	1.136345113188312	1.182316381860721	-0.2530709593114564	1.257636533631132	1.421201450445567	-0.2241484451219468	1.252954884889231	1.327937508148468	-0.2345396672360072	1.182148999063336	1.319713343670582	-0.2078444075158157	1.222981941273584	1.106531695864836	-0.212419863223341	1.313004063182244	0.9576817362318191	-0.1607192347760237	1.248455941273014	0.9427634395273279	-0.126452863236457	1.330934350910784	1.071111927555261	-0.3301489905708901	1.149850263975557	1.084613435759431	-0.4236536307793672	1.159730673289701	0.06468442305607003	-0.4211911828666557	1.390060994343707	0.03829288553255256	-0.453160726041218	1.327787282824205	0.00687312320296064	-0.3594641352453075	1.27279717246359	0.8879755216588715	-0.2731903876326829	1.330396272611094	0.7845117102507166	-0.2881982154454331	1.263784070290318	0.6691664283515344	-0.320663731647165	1.328684535919288	0.3697226903541018	-0.40929302230076	1.302799788941241	0.3045531754764299	-0.3418767173260491	1.298393480578904	0.2073795027827205	-0.4139550833058402	1.3152530645829	0.5373127133447502	-0.3344325681446695	1.316103438583253	0.5430270901807936	-0.4503588985854938	1.241578116440518	0.0695359968207826	-0.3624123070640839	1.248006108053345	0.07486259311765792	-0.4668111559677124	1.262041692796737	0.9578222560346059	-0.3722017722968087	1.319075767997778	0.5388559241562171	-0.3946741847117767	1.146866158249751	1.175674340724756	-0.2148321405671795	1.22966050653589	0.06133737720352539	-0.4230252164306656	1.284655167130226	1.491484711687921	-0.2693784662423829	1.287563320651982	1.524025844519621	-0.6445157674971607	1.34152988256753	1.476019515310631	-0.667143202416433	1.23441021250528	1.497926781261251	-0.670264864736861	1.236799425691426	1.150759568177352	-0.719629975317434	1.202694147937877	1.14751919748233	-0.6511651419932253	1.280407336292899	1.420104197256393	-0.7091824904680639	1.299167189717024	1.350099070212444	-0.6928914359716813	1.210189015952521	1.314330988226759	-0.6948794288316985	1.288249264392443	1.0790445146773	-0.6537872643887377	1.381884454280171	0.9097694568563719	-0.6845262111200837	1.32359662779247	0.8889423808185233	-0.7235802745016119	1.338712259114477	1.052678698897265	-0.5917570303310985	1.152106716673544	1.084082987333326	-0.5061545759533608	0.9886288285044689	0.2864123679179115	-0.5892971087149377	1.125198289723233	0.09867084153718017	-0.5599669767822156	1.063555118296332	0.1291064394459914	-0.6519505755820062	1.309037800223599	0.858696568785827	-0.6448417218346936	1.397212229655381	0.7571614219870826	-0.6441409812617929	1.36158181047317	0.6294327375938398	-0.6436913158598191	1.322966877487453	0.406981246960527	-0.5936598603550167	1.242186652689063	0.3713502698863499	-0.6511025103161923	1.161664143282602	0.287499869542896	-0.5889518333721283	1.395125066098241	0.5597678783103268	-0.6541230238735239	1.405337213154904	0.5445273702508107	-0.5395118102222372	1.047699781471426	0.2357955288642015	-0.6465317788600013	1.056570622091367	0.2287768591732914	-0.5424123387003819	1.265443511188678	0.9463547400407721	-0.5323875277496466	1.407596165262246	0.5442651397756983	-0.5952579939520822	1.22794238174576	1.143671067430196	-0.6866550768597939	1.033598454200662	0.2330403136246429	-0.5858957093177288	1.295066725678029	1.485521791916713	-0.6684972234479186	
